{
    "asset" : {
        "generator" : "Khronos glTF Blender I/O v1.7.33",
        "version" : "2.0"
    },
    "scene" : 0,
    "scenes" : [
        {
            "name" : "Scene",
            "nodes" : [
                0
            ]
        }
    ],
    "nodes" : [
        {
            "mesh" : 0,
            "name" : "m9",
            "rotation" : [
                0.7071068286895752,
                0,
                0,
                0.7071067094802856
            ]
        }
    ],
    "materials" : [
        {
            "alphaMode" : "BLEND",
            "doubleSided" : true,
            "name" : "model314:anisotropic2SG",
            "pbrMetallicRoughness" : {
                "baseColorFactor" : [
                    0,
                    0,
                    0,
                    1
                ]
            }
        }
    ],
    "meshes" : [
        {
            "name" : "m9",
            "primitives" : [
                {
                    "attributes" : {
                        "POSITION" : 0,
                        "NORMAL" : 1,
                        "TEXCOORD_0" : 2
                    },
                    "indices" : 3,
                    "material" : 0
                }
            ]
        }
    ],
    "accessors" : [
        {
            "bufferView" : 0,
            "componentType" : 5126,
            "count" : 9108,
            "max" : [
                16.514951705932617,
                1.9951729774475098,
                -0.305510014295578
            ],
            "min" : [
                -14.446395874023438,
                -0.005173000041395426,
                -13.6550931930542
            ],
            "type" : "VEC3"
        },
        {
            "bufferView" : 1,
            "componentType" : 5126,
            "count" : 9108,
            "type" : "VEC3"
        },
        {
            "bufferView" : 2,
            "componentType" : 5126,
            "count" : 9108,
            "type" : "VEC2"
        },
        {
            "bufferView" : 3,
            "componentType" : 5123,
            "count" : 15378,
            "type" : "SCALAR"
        }
    ],
    "bufferViews" : [
        {
            "buffer" : 0,
            "byteLength" : 109296,
            "byteOffset" : 0
        },
        {
            "buffer" : 0,
            "byteLength" : 109296,
            "byteOffset" : 109296
        },
        {
            "buffer" : 0,
            "byteLength" : 72864,
            "byteOffset" : 218592
        },
        {
            "buffer" : 0,
            "byteLength" : 30756,
            "byteOffset" : 291456
        }
    ],
    "buffers" : [
        {
            "byteLength" : 322212,
            "uri" : "data:application/octet-stream;base64,"
        }
    ]
}
