<svg id="Layer_1" data-name="Layer 1" xmlns="http://www.w3.org/2000/svg" viewBox="0 0 835.77 813.98"><defs><style>.cls-1{fill:#282828;}.cls-2{fill:#e6e7e8;}</style></defs><polygon class="cls-1" points="835.77 391.33 835.76 422.73 799.6 417.18 796.23 403.86 835.77 391.33"/><polygon points="0 813.98 0 586.42 86.6 586.42 86.6 692.36 662.56 422.73 86.6 153.1 86.6 267.84 0 267.84 0 31.47 835.76 422.73 0 813.98"/><rect x="302.1" y="387.62" width="447.06" height="70.22"/><rect x="236.32" y="315.44" width="86.6" height="214.59"/><polygon class="cls-2" points="0 782.51 0 554.95 86.6 554.95 86.6 660.89 662.56 391.26 86.6 121.63 86.6 236.36 0 236.36 0 0 835.76 391.26 0 782.51"/><rect class="cls-2" x="302.1" y="356.15" width="447.06" height="70.22"/><rect class="cls-2" x="236.32" y="283.96" width="86.6" height="214.59"/><path class="cls-1" d="M895.43,396.18" transform="translate(-0.96 -0.69)"/></svg>