<svg id="Layer_1" data-name="Layer 1" xmlns="http://www.w3.org/2000/svg" viewBox="0 0 1739 837.55"><defs><style>.cls-1{fill:#282828;}.cls-2{fill:#e6e7e8;}</style></defs><polygon class="cls-1" points="903.26 414.8 903.25 446.3 930.01 443.36 938.85 430.59 928.78 423.59 903.26 414.8"/><polygon class="cls-1" points="835.77 413.97 835.76 445.37 799.6 439.82 796.23 426.49 835.77 413.97"/><polygon class="cls-1" points="1462.5 0.07 1462.58 31.47 1407.35 33.36 1411.11 21.17 1462.5 0.07"/><polygon class="cls-1" points="272.86 0.12 272.83 31.47 322.48 33.43 324.89 29.82 272.86 0.12"/><polygon points="0 836.62 0 609.06 86.6 609.06 86.6 715 662.56 445.37 86.6 175.74 86.6 290.47 0 290.47 0 54.11 835.76 445.37 0 836.62"/><rect x="302.1" y="410.26" width="447.06" height="70.22"/><rect x="236.32" y="338.07" width="86.6" height="214.59"/><polygon points="1739 837.55 903.25 446.3 1739 55.04 1739 282.61 1652.4 282.61 1652.4 176.67 1076.45 446.3 1652.4 715.93 1652.4 609.56 1739 609.56 1739 837.55"/><rect x="989.85" y="411.19" width="447.05" height="70.22"/><rect x="1416.08" y="339" width="86.6" height="214.59"/><polygon points="867.7 408.71 272.83 31.47 618.82 31.47 618.82 70.56 457.75 70.56 867.7 330.54 1277.66 70.56 1115.92 70.56 1115.92 31.47 1462.58 31.47 867.7 408.71"/><rect x="824.4" y="167.83" width="86.6" height="201.79"/><rect x="735.38" y="138.14" width="264.65" height="39.09"/><polygon class="cls-2" points="0 805.15 0 577.59 86.6 577.59 86.6 683.52 662.56 413.89 86.6 144.26 86.6 259 0 259 0 22.64 835.76 413.89 0 805.15"/><rect class="cls-2" x="302.1" y="378.78" width="447.06" height="70.22"/><rect class="cls-2" x="236.32" y="306.6" width="86.6" height="214.59"/><polygon class="cls-2" points="1739 806.08 903.25 414.83 1739 23.57 1739 251.13 1652.4 251.13 1652.4 145.2 1076.45 414.83 1652.4 684.46 1652.4 578.09 1739 578.09 1739 806.08"/><rect class="cls-2" x="989.85" y="379.72" width="447.05" height="70.22"/><rect class="cls-2" x="1416.08" y="307.53" width="86.6" height="214.59"/><polygon class="cls-2" points="867.7 377.24 272.83 0 618.82 0 618.82 39.09 457.75 39.09 867.7 299.06 1277.66 39.09 1115.92 39.09 1115.92 0 1462.58 0 867.7 377.24"/><rect class="cls-2" x="824.4" y="136.36" width="86.6" height="201.79"/><rect class="cls-2" x="735.38" y="106.67" width="264.65" height="39.09"/><path class="cls-1" d="M895.43,418.12" transform="translate(-0.96 0.01)"/></svg>