<svg id="Layer_1" data-name="Layer 1" xmlns="http://www.w3.org/2000/svg" viewBox="0 0 1657.27 768.19"><defs><style>.cls-1{fill:#757677;}</style></defs><polygon class="cls-1" points="0 21.57 0 246.83 82.53 246.83 82.53 137.48 559.94 360.98 307.74 360.98 307.74 292.19 225.21 292.19 225.21 496.69 307.74 496.69 307.74 427.9 559.94 427.9 82.53 651.4 82.53 550.44 0 550.44 0 767.3 796.48 394.44 0 21.57"/><polygon class="cls-1" points="1657.27 239.33 1657.27 22.46 860.79 395.33 1657.27 768.2 1657.27 550.91 1574.73 550.91 1574.73 652.29 1097.33 428.79 1349.52 428.79 1349.52 497.58 1432.06 497.58 1432.06 293.08 1349.52 293.08 1349.52 361.87 1097.33 361.87 1574.73 138.37 1574.73 239.33 1657.27 239.33"/><polygon class="cls-1" points="1063.47 0 1063.47 37.25 1217.6 37.25 868.18 258.84 868.18 138.91 953.02 138.91 953.02 101.66 700.81 101.65 700.81 138.91 785.65 138.91 785.65 258.84 436.24 37.25 589.74 37.25 589.74 0 260 0 826.92 359.51 1393.83 0 1063.47 0"/></svg>