<svg id="Layer_1" data-name="Layer 1" xmlns="http://www.w3.org/2000/svg" viewBox="0 0 1622.16 557.26"><defs><style>.cls-1,.cls-4{fill:#e6e7e8;}.cls-1{opacity:0.3;}.cls-2{opacity:0.9;}.cls-3{fill:#6a7477;}.cls-5{fill:#282828;}</style></defs><polygon class="cls-1" points="0.11 557.17 0 514.35 75.3 511.77 70.17 528.39 0.11 557.17"/><polygon class="cls-1" points="1622.12 557.1 1622.16 514.35 1554.46 511.68 1551.18 516.6 1622.12 557.1"/><g class="cls-2"><polygon class="cls-3" points="811.08 0 1622.16 514.35 1150.42 514.35 1150.42 461.05 1370.03 461.05 811.08 106.59 252.13 461.05 472.64 461.05 472.64 514.35 0 514.35 811.08 0"/></g><g class="cls-2"><rect class="cls-3" x="630.66" y="315.92" width="360.83" height="53.3"/></g><polygon class="cls-4" points="811.08 42.91 1622.16 557.26 1150.42 557.26 1150.42 503.96 1370.03 503.96 811.08 149.5 252.13 503.96 472.64 503.96 472.64 557.26 0 557.26 811.08 42.91"/><rect class="cls-4" x="752.04" y="96.21" width="118.08" height="275.13"/><rect class="cls-4" x="630.66" y="358.53" width="360.83" height="53.3"/><path class="cls-5" d="M141.76,1112.4" transform="translate(632.82 -1125.24)"/></svg>