{
    "asset" : {
        "generator" : "Khronos glTF Blender I/O v1.7.33",
        "version" : "2.0"
    },
    "extensionsUsed" : [
        "KHR_materials_transmission"
    ],
    "scene" : 0,
    "scenes" : [
        {
            "name" : "Scene",
            "nodes" : [
                0
            ]
        }
    ],
    "nodes" : [
        {
            "mesh" : 0,
            "name" : "d1",
            "rotation" : [
                0.7071068286895752,
                0,
                0,
                0.7071067094802856
            ]
        }
    ],
    "materials" : [
        {
            "alphaMode" : "BLEND",
            "doubleSided" : true,
            "extensions" : {
                "KHR_materials_transmission" : {
                    "transmissionFactor" : 0.5
                }
            },
            "name" : "model314:anisotropic2SG",
            "pbrMetallicRoughness" : {
                "baseColorFactor" : [
                    0.8599578142166138,
                    0.5731450915336609,
                    1,
                    1
                ],
                "metallicFactor" : 0.38999998569488525,
                "roughnessFactor" : 0.9918350577354431
            }
        }
    ],
    "meshes" : [
        {
            "name" : "d1",
            "primitives" : [
                {
                    "attributes" : {
                        "POSITION" : 0,
                        "NORMAL" : 1,
                        "TEXCOORD_0" : 2
                    },
                    "indices" : 3,
                    "material" : 0
                }
            ]
        }
    ],
    "accessors" : [
        {
            "bufferView" : 0,
            "componentType" : 5126,
            "count" : 8565,
            "max" : [
                16.299253463745117,
                2,
                -0.305510014295578
            ],
            "min" : [
                -14.171507835388184,
                -0.004827000200748444,
                -13.6550931930542
            ],
            "type" : "VEC3"
        },
        {
            "bufferView" : 1,
            "componentType" : 5126,
            "count" : 8565,
            "type" : "VEC3"
        },
        {
            "bufferView" : 2,
            "componentType" : 5126,
            "count" : 8565,
            "type" : "VEC2"
        },
        {
            "bufferView" : 3,
            "componentType" : 5123,
            "count" : 14244,
            "type" : "SCALAR"
        }
    ],
    "bufferViews" : [
        {
            "buffer" : 0,
            "byteLength" : 102780,
            "byteOffset" : 0
        },
        {
            "buffer" : 0,
            "byteLength" : 102780,
            "byteOffset" : 102780
        },
        {
            "buffer" : 0,
            "byteLength" : 68520,
            "byteOffset" : 205560
        },
        {
            "buffer" : 0,
            "byteLength" : 28488,
            "byteOffset" : 274080
        }
    ],
    "buffers" : [
        {
            "byteLength" : 302568,
            "uri" : "data:application/octet-stream;base64,"
        }
    ]
}
